<?xml version="1.0" encoding="UTF-8" standalone="no"?><!DOCTYPE svg PUBLIC "-//W3C//DTD SVG 1.1//EN" "http://www.w3.org/Graphics/SVG/1.1/DTD/svg11.dtd"><svg width="100%" height="100%" viewBox="0 0 1800 1200" version="1.1" xmlns="http://www.w3.org/2000/svg" xmlns:xlink="http://www.w3.org/1999/xlink" xml:space="preserve" xmlns:serif="http://www.serif.com/" style="fill-rule:evenodd;clip-rule:evenodd;stroke-linecap:round;stroke-linejoin:round;stroke-miterlimit:1.5;"><g><g><g><path d="M475.413,1135.669c-41.653,-57.555 -70.499,-131.444 -97.192,-207.743c-59.285,-169.46 -75.556,-307.896 -183.967,-327.925c46.13,-41.559 172.412,-257.57 187.779,-408.619c2.574,-25.302 2.212,-52.46 0.97,-75.146c-1.632,-29.814 -4.782,-51.904 -4.782,-51.904" style="fill:none;stroke:#000;stroke-width:56.25px;"/><path d="M121.087,1039.377c0,-1.717 19.247,-41.537 37.264,-98.755c18.767,-59.6 31.811,-183.399 35.014,-261.646c4.673,-114.133 -4.443,-263.634 -46.547,-364.228c-40.283,-96.243 -107.817,-169.724 -107.817,-169.724" style="fill:none;stroke:#000;stroke-width:56.25px;"/></g><path d="M441.479,451.954c-13.842,12.47 -105.387,132.411 -51.823,180.667c46.585,41.968 62.269,-68.001 62.889,-75.543c3.021,-36.73 -18.312,-152.919 -7.572,-81.637c31.725,210.566 55.715,243.131 55.216,243.024l-58.709,-266.511Z" style="fill:none;stroke:#000;stroke-width:56.25px;"/><g><path d="M576.417,456.011c0,66.677 6.425,231.092 9.529,250.665" style="fill:none;stroke:#000;stroke-width:56.25px;"/><path d="M508.693,311.647l1.906,0" style="fill:none;stroke:#000;stroke-width:50px;"/><path d="M567.559,293.182l1.906,0" style="fill:none;stroke:#000;stroke-width:50px;"/><path d="M625.119,311.647l1.906,0" style="fill:none;stroke:#000;stroke-width:50px;"/><path d="M540.973,364.801c4.384,4.666 0.479,8.139 10.948,16.987c13.46,11.376 21.078,12.306 23.238,12.225c7.946,-0.3 17.885,-17.223 18.434,-19.226c1.224,-4.466 5.275,-8.099 0.061,-8.633c-87.551,-8.973 -39.435,9.321 -37.41,11.477c2.899,3.086 11.147,6.317 12.199,6.73" style="fill:none;stroke:#000;stroke-width:50px;"/></g><path d="M658.444,476.453c22.331,20.118 60.115,164.635 60.983,180.273c1.308,23.567 -2.637,51.766 5.717,29.187c12.969,-35.051 9.941,-35.453 22.869,-70.392c35.07,-94.785 39.025,-103.985 41.926,-96.146c0.096,0.259 13.699,139.391 49.549,171.689c2.04,1.837 8.57,-85.824 32.397,-171.689c0.91,-3.279 28.604,-89.328 42.981,-110.719" style="fill:none;stroke:#000;stroke-width:56.25px;"/><g><path d="M1131.772,720.4c0.208,0.034 -88.055,-259.839 -56.054,-433.159c0.515,-2.32 -28.217,43.637 -72.418,166.538c-15.317,42.589 -54.163,182.833 -74.323,262.684l29.42,-109.842c3.036,-2.735 31.372,-11.469 52.526,-17.208c26.913,-7.302 76.157,-24.784 79.916,-25.349" style="fill:none;stroke:#000;stroke-width:56.25px;"/></g><path d="M1294.1,322.351c-23.607,-23.607 -97.896,-49.803 -124.911,8.364c-20.447,44.025 8.782,71.336 63.804,151.911c55.022,80.575 88.916,111.103 88.916,151.863c0,78.469 -88.545,98.762 -133.72,34.603" style="fill:none;stroke:#000;stroke-width:56.25px;"/><path d="M1510.758,695.273c-19.1,19.1 -93.694,41.564 -112.684,-54.102c-4.046,-20.383 -26.606,-243.605 7.429,-312.782c17.303,-35.17 56.96,-51.294 96.925,-11.329" style="fill:none;stroke:#000;stroke-width:56.25px;"/><g><path d="M1600.194,402.181c0,86.22 11.897,185.592 11.897,310.227" style="fill:none;stroke:#000;stroke-width:56.25px;"/><path d="M1573.973,317.237c1.005,1.811 9.885,27.649 29.989,30.096c5.95,0.724 42.506,-40.186 29.864,-46.237c-19.905,-9.527 -21.016,16.565 -25.035,16.844c-12.22,0.847 -16.54,5.86 -22.134,-4.219c-0.378,-0.68 -13.923,-9.005 -14.919,-12.625c-1.975,-7.18 18.262,-4.206 23.701,5.593c0.916,1.651 13.904,25.053 19.515,14.944c0.325,-0.586 0.65,-1.172 0.976,-1.758c-3.496,6.299 -1.302,6.741 -4.879,13.186c-6.544,11.791 -12.093,6.34 -18.539,-5.274c-5.152,-9.282 -5.638,-8.595 -13.66,-15.823c-4.329,-3.9 -8.322,-15.036 -8.076,-10.867c1.31,22.241 6.991,16.043 11.979,20.536c20.569,18.531 42.37,5.595 46.919,-10.797c0.504,-1.815 0.515,4.982 1.491,4.103" style="fill:none;stroke:#000;stroke-width:33.33px;"/></g><g><path d="M1715.747,402.181c0,136.987 -3.886,150.848 0,310.227" style="fill:none;stroke:#000;stroke-width:56.25px;"/><path d="M1685.55,308.86c16.456,27.604 24.973,42.002 41.099,27.475c33.237,-29.944 23.203,-45.693 10.615,-38.902c-13.679,7.38 -25.293,33.921 -28.558,12.135c-1.333,-8.89 -44.597,-25.104 -17.386,-0.59c2.569,2.315 8.516,4.093 15.964,10.803c20.934,18.859 28.13,-6.617 32.907,-10.921c2.043,-1.841 -0.587,-0.701 -0.976,-0c-9.646,17.381 -45.494,12.965 -52.689,0c-2.241,-4.038 0.301,4.985 -3.903,-8.396" style="fill:none;stroke:#000;stroke-width:33.33px;"/></g></g></g></svg>