<?xml version="1.0" encoding="UTF-8" standalone="no"?><!DOCTYPE svg PUBLIC "-//W3C//DTD SVG 1.1//EN" "http://www.w3.org/Graphics/SVG/1.1/DTD/svg11.dtd"><svg width="100%" height="100%" viewBox="0 0 1469 1043" version="1.1" xmlns="http://www.w3.org/2000/svg" xmlns:xlink="http://www.w3.org/1999/xlink" xml:space="preserve" xmlns:serif="http://www.serif.com/" style="fill-rule:evenodd;clip-rule:evenodd;stroke-linecap:round;stroke-linejoin:round;stroke-miterlimit:1.5;"><g><g><path d="M123.047,933.515c-3.324,11.753 -14.137,20.374 -26.947,20.374c-15.454,0 -28,-12.546 -28,-28c0,-1.121 -0.03,-5.02 2.114,-10.983c2.666,-7.413 16.685,-41.144 29.864,-87.599c15.141,-53.371 25.42,-164.262 28.005,-234.332c3.776,-102.367 -29.317,-275.516 -37.043,-304.889c-19.974,-75.941 -39.349,-115.319 -84.264,-167.515c-10.08,-11.714 -8.753,-29.407 2.961,-39.487c11.714,-10.08 29.407,-8.753 39.487,2.961c50.943,59.202 73.319,103.663 95.973,189.797c8.139,30.943 42.824,213.362 38.847,321.198c-2.731,74.041 -14.094,191.155 -30.092,247.551c-13.014,45.875 -29.253,86.798 -30.905,90.924Z"/><path d="M158.343,517.089c-15.139,-3.105 -24.909,-17.916 -21.804,-33.054c3.105,-15.139 17.916,-24.909 33.054,-21.804c44.558,9.138 74.808,43.968 96.253,97.462c26.182,65.309 40.532,160.761 70.281,255.147c21.334,67.69 44.091,133.368 77.383,184.429c8.44,12.945 4.783,30.307 -8.163,38.748c-12.945,8.44 -30.307,4.783 -38.748,-8.163c-35.82,-54.941 -60.927,-125.347 -83.882,-198.18c-29.272,-92.874 -43.087,-186.88 -68.85,-251.143c-13.199,-32.924 -28.1,-57.817 -55.525,-63.441Z"/><path d="M196.416,498.392c-10.927,10.927 -28.671,10.927 -39.598,0c-10.927,-10.927 -10.927,-28.671 -0,-39.598c36.25,-36.25 115.808,-184.6 127.884,-316.353c4.665,-50.896 0.505,-86.251 -2.991,-110.434c-2.211,-15.295 8.411,-29.507 23.706,-31.718c15.295,-2.211 29.507,8.411 31.718,23.706c3.911,27.057 8.553,66.613 3.333,123.558c-13.422,146.44 -103.762,310.549 -144.052,350.84Z"/><path d="M351.767,359.411l3.644,-1.754l6.576,-0.784l6.18,0.686l5.938,2.058l5.764,3.673c1.739,1.432 6.997,5.795 9.762,15.531c2.84,9.998 10.238,59.744 10.034,91.962c15.728,111.743 29.863,137.966 33.057,142.407c4.454,6.195 4.962,10.017 5.06,10.41l0.816,7.68l-1.744,8.858l-2.891,5.684l-4.516,5.268l-10.823,6.111l-7.804,1.17l-6.668,-0.754c-6.721,-1.593 -12.3,-5.491 -16.095,-10.658c-0.232,-0.304 -0.526,-0.696 -0.802,-1.079c-2.48,-3.449 -12.416,-18.179 -24.493,-67.929c-8.233,6.665 -17.566,10.087 -27.113,10.13c-10.534,0.048 -23.277,-3.7 -36.539,-16.963c-24.538,-24.538 -27.168,-62.727 -16.025,-101.355c13.759,-47.696 46.785,-94.917 54.614,-102.747c3.999,-3.999 8.911,-6.535 14.068,-7.607Zm-8.096,114.444c-0.277,-1.949 -0.553,-3.92 -0.829,-5.912c-2.245,5.702 -4.272,11.525 -5.951,17.343c-3.049,10.571 -4.993,21.116 -4.224,30.733c0.146,1.832 0.389,3.626 0.777,5.353c1.224,-2.976 2.351,-6.003 3.068,-8.564c4.498,-16.074 6.479,-32.057 6.788,-34.527c0.169,-1.348 0.291,-2.831 0.372,-4.427Zm39.46,161.92c-0.753,-3.81 -0.721,-7.837 0.232,-11.859c1.335,-5.635 4.291,-10.467 8.257,-14.118c-5.384,4.945 -11.222,12.945 -8.488,25.978Zm8.647,-26.122c6.608,-5.992 15.959,-8.737 25.287,-6.527c-12.582,-2.981 -20.502,2.177 -25.287,6.527Z"/><path d="M445.85,388.686c0,-15.454 12.546,-28 28,-28c15.454,0 28,12.546 28,28c0,60.346 5.093,209.156 7.624,226.87c2.185,15.298 -8.46,29.493 -23.759,31.678c-15.298,2.185 -29.493,-8.46 -31.678,-23.759c-2.619,-18.334 -8.187,-172.334 -8.187,-234.79Z"/><path d="M424.223,266.862c-11.498,0 -20.833,-9.335 -20.833,-20.833c-0,-11.498 9.335,-20.833 20.833,-20.833l1.581,0c11.498,0 20.833,9.335 20.833,20.833c-0,11.498 -9.335,20.833 -20.833,20.833l-1.581,0Z"/><path d="M473.059,249.859c-11.498,-0 -20.833,-9.335 -20.833,-20.833c0,-11.498 9.335,-20.833 20.833,-20.833l1.581,0c11.498,-0 20.833,9.335 20.833,20.833c0,11.498 -9.335,20.833 -20.833,20.833l-1.581,0Z"/><path d="M520.812,266.862c-11.498,0 -20.833,-9.335 -20.833,-20.833c-0,-11.498 9.335,-20.833 20.833,-20.833l1.581,0c11.498,0 20.833,9.335 20.833,20.833c-0,11.498 -9.335,20.833 -20.833,20.833l-1.581,0Z"/><path d="M450.387,266.988c0.958,-0.177 1.962,-0.333 3.015,-0.464c7.046,-0.876 20.585,-0.839 44.471,1.878c9.057,1.03 14.284,4.774 17.744,8.019c6.645,6.233 5.805,33.399 5.71,35.954c-1.851,4.737 -8.128,17.662 -15.876,25.539c-7.858,7.989 -17.222,11.616 -24.915,11.938c-3.52,0.147 -17.676,1.763 -39.608,-18.812c-6.102,-5.725 -9.792,-11.68 -11.975,-16.296c-0.923,-1.3 -1.692,-2.576 -2.32,-3.79c-1.672,-3.229 -2.63,-6.437 -3.085,-9.499l0.003,-0.956c-1.933,-9.671 1.308,-20.078 9.362,-26.895c5.092,-4.309 11.28,-6.484 17.473,-6.616Zm70.94,45.387c0.265,-0.678 0.439,-1.188 0.514,-1.492c-0.143,0.578 -0.522,1.685 -0.522,1.685c0,-0 0.003,-0.066 0.008,-0.193Z"/><path d="M602.125,489.556c10.969,-32.324 16.67,-47.83 19.834,-54.019c5.839,-11.419 12.914,-14.774 16.41,-16.247l11.688,-2.261l6.601,0.89l5.842,2.196c4.611,2.333 11.521,7.466 15.054,18.067c0.03,0.09 1.746,17.981 5.367,42.107c2.657,-13.411 5.619,-26.959 8.89,-40.044c0.813,-3.253 26.022,-88.449 38.87,-109.669c8.004,-13.219 25.235,-17.453 38.454,-9.449c13.219,8.004 17.453,25.235 9.449,38.454c-11.006,18.178 -31.749,91.459 -32.445,94.246c-17.588,70.351 -23.603,142.041 -25.866,154.453c-2.315,12.7 -9.361,17.8 -11.034,19.083l-9.086,4.636l-8.829,1.153l-9.739,-2.053l-9.287,-6.162c-10.396,-10.396 -20.076,-29.561 -27.173,-52.761c-1.862,-6.086 -3.593,-12.47 -5.198,-18.995c-7.511,23.813 -6.444,27.015 -16.128,56.068c-4.047,12.142 -8.853,17.373 -10.723,19.109l-5.805,4.185l-6.556,2.589l-7.279,0.894l-7.852,-1.174l-7.403,-3.428l-6.758,-6.163c-1.964,-2.475 -4.605,-6.559 -5.878,-12.882c-0.973,-4.833 -0.25,-22.095 -1.019,-37.464c-0.474,-9.48 -15.516,-73.539 -30.203,-117.167c-4.532,-13.463 -12.235,-29.723 -12.92,-31.161c-10.226,-10.973 -9.994,-28.187 0.696,-38.877c10.927,-10.927 28.671,-10.927 39.598,-0c7.112,7.112 17.136,26.733 25.7,52.172c5.108,15.174 10.163,32.566 14.725,49.673Z"/><path d="M861.109,225.741c3.891,-13.986 17.998,-22.82 32.461,-19.927c15.154,3.031 24.996,17.794 21.965,32.948c-0.772,3.858 -1.428,4.859 -16.793,39.177c-17.587,39.279 -32.432,81.294 -44.105,117.322c-8.656,26.716 -44.437,166.684 -60.994,239.477c-3.427,15.069 -18.444,24.52 -33.513,21.093c-15.069,-3.427 -24.52,-18.444 -21.093,-33.513c16.893,-74.271 53.494,-217.059 62.326,-244.318c12.234,-37.759 27.836,-81.778 46.268,-122.946c7.818,-17.461 12.347,-26.962 13.478,-29.313Z"/><path d="M917.694,677.321c-0.257,-0.836 -1.19,-3.881 -2.247,-7.395c-14.399,-47.854 -84.561,-294.595 -56.431,-438.852c2.958,-15.168 17.674,-25.081 32.841,-22.123c15.168,2.958 25.081,17.674 22.123,32.841c-26.426,135.519 41.565,367.043 55.092,411.999c1.451,4.822 2.326,7.642 2.474,8.155l1.117,7.575l-1.366,8.91l-5.595,9.834l-4.835,4.358l-6.746,3.519l-7.591,1.583l-6.83,-0.382c-10.908,-1.965 -19.199,-10.016 -22.006,-20.024Zm-0.807,-3.965c-0.356,-2.77 -0.3,-5.64 0.221,-8.532c2.74,-15.209 17.313,-25.332 32.521,-22.591c-7.121,-1.283 -13.45,0.08 -19.104,3.388c-2.456,1.437 -16.27,8.818 -13.638,27.735Z"/><path d="M812.761,548.869c-10.596,5.673 -24.085,4.043 -33.019,-4.89c-10.927,-10.927 -10.927,-28.671 -0,-39.598c2.39,-2.39 6.687,-5.736 13.609,-8.139c5.209,-1.808 16.61,-3.834 28.451,-9.754c17.226,-8.613 42.088,-13.013 45.863,-13.642c15.243,-2.541 29.682,7.773 32.222,23.016c2.541,15.243 -7.773,29.682 -23.016,32.222c-2.462,0.41 -18.793,2.875 -30.026,8.492c-12.714,6.357 -29.739,11.126 -34.085,12.293Z"/><path d="M1088.729,246.902c10.321,10.749 9.973,27.855 -0.776,38.176c-10.749,10.321 -27.855,9.973 -38.176,-0.776c-4.207,-4.382 -13.959,-10.004 -24.849,-13.32c-7.885,-2.401 -16.693,-4.13 -24.117,-0.276c-4.327,2.246 -7.61,6.639 -10.28,13.021c-3.358,8.026 -0.295,17.277 3.057,26.093c8.084,21.265 22.919,40.329 27.046,47.036c18.902,30.724 55.447,79.012 68.346,104.541c22.268,44.072 29.675,85.36 29.99,87.293c7.835,47.997 -9.145,78.88 -32.029,94.967c-35.626,25.044 -92.216,16.071 -121.64,-30.313c-7.982,-12.584 -4.247,-29.28 8.337,-37.263c12.584,-7.982 29.28,-4.247 37.263,8.337c11.135,17.553 31.504,24.538 44.985,15.061c9.867,-6.936 13.167,-21.395 9.789,-42.09c-0.259,-1.589 -6.596,-35.427 -24.893,-71.641c-12.434,-24.609 -47.922,-70.982 -66.142,-100.598c-4.897,-7.96 -21.934,-30.907 -31.528,-56.143c-8.441,-22.205 -10.854,-45.911 -2.396,-66.125c17.893,-42.764 51.464,-51.916 83.546,-47.261c27.838,4.039 54.143,20.528 64.467,31.281Z"/><path d="M1224.086,588.9c6.915,-13.483 23.393,-19.052 37.105,-12.418c13.911,6.731 19.74,23.489 13.009,37.4c-2.8,5.787 -10.827,17.269 -23.002,26.313c-12.927,9.603 -30.019,16.253 -48.752,13.692c-14.801,-2.023 -31.608,-9.649 -47.732,-29.734c-1.017,-1.267 -1.993,-2.612 -2.941,-4.012c-4.741,-7.004 -10.436,-22.145 -14.957,-42.221c-8.413,-37.356 -15.526,-94.845 -17.336,-134.003c-1.949,-42.193 -2.567,-91.147 2.937,-130.973c4.331,-31.335 13.033,-57.508 25.677,-73.704c20.286,-25.985 65.141,-38.204 111.695,-0.202c11.972,9.772 13.757,27.425 3.985,39.397c-9.772,11.972 -27.425,13.757 -39.397,3.985c-7.524,-6.142 -14.729,-9.87 -21.427,-10.989c-4.449,-0.743 -8.536,-0.52 -10.714,2.269c-7.947,10.179 -11.624,27.215 -14.346,46.91c-5.073,36.707 -4.266,81.833 -2.469,120.722c1.678,36.316 8.225,89.639 16.027,124.284c2.431,10.793 4.149,19.365 6.698,23.131c0.08,0.119 0.151,0.241 0.237,0.348c4.275,5.325 7.723,8.771 11.647,9.307c3.104,0.424 5.631,-1.57 7.773,-3.162c2.803,-2.082 5.893,-5.861 6.282,-6.342Z"/><path d="M1373.101,608.028c0.559,2.205 0.856,4.515 0.856,6.893l-0,8.477c-0,15.143 -12.04,27.543 -27.176,27.988c-15.137,0.445 -27.885,-11.224 -28.775,-26.342c-15.498,-263.121 -14.382,-263.207 -16.764,-273.851c-3.375,-15.081 6.128,-30.064 21.208,-33.44c15.081,-3.375 30.064,6.128 33.44,21.208c2.418,10.804 2.027,11.033 17.211,269.065Z"/><path d="M1396.096,345.509c-3.357,-15.085 6.165,-30.057 21.25,-33.413c15.085,-3.357 30.057,6.165 33.413,21.25c2.003,9.003 2.598,9.073 10.071,105.642c4.986,64.429 7.989,141.346 7.989,191.474c0,15.454 -12.546,28 -28,28c-15.454,0 -28,-12.546 -28,-28c0,-48.998 -2.948,-124.179 -7.822,-187.154c-6.916,-89.365 -7.047,-89.468 -8.901,-97.8Z"/><path d="M1301.44,260.893c0.834,1.668 8.201,25.461 24.88,27.714c4.936,0.667 35.264,-37.006 24.776,-42.578c-16.514,-8.773 -17.435,15.254 -20.77,15.511c-10.138,0.78 -13.722,5.396 -18.363,-3.885c-0.313,-0.627 -11.551,-8.292 -12.377,-11.626c-1.638,-6.612 15.151,-3.874 19.662,5.15c0.76,1.52 11.535,23.07 16.19,13.761c0.27,-0.54 0.54,-1.079 0.809,-1.619c-2.9,5.801 -1.08,6.207 -4.047,12.142c-5.429,10.858 -10.033,5.838 -15.38,-4.857c-4.274,-8.548 -4.677,-7.915 -11.333,-14.571c-3.591,-3.591 -6.904,-13.846 -6.7,-10.007c1.087,20.481 5.8,14.774 9.938,18.911c17.064,17.064 36.7,7.809 40.474,-7.285c0.418,-1.671 -1.122,1.93 -0.312,1.121" style="fill:none;stroke:#000;stroke-width:16.67px;"/><path d="M1394.006,253.179c13.652,25.42 20.718,38.679 34.096,25.301c27.574,-27.574 19.25,-42.078 8.806,-35.824c-11.348,6.796 -20.983,31.237 -23.692,11.175c-1.106,-8.187 -36.998,-23.118 -14.424,-0.543c2.131,2.131 7.653,2.617 13.832,8.796c17.367,17.367 22.75,-4.941 26.713,-8.904c1.695,-1.695 -0.487,-0.645 -0.809,-0c-8.003,16.006 -37.743,11.939 -43.712,0c-1.859,-3.719 0.25,4.59 -3.238,-7.732" style="fill:none;stroke:#000;stroke-width:16.67px;"/></g></g></svg>